<?xml version="1.0" encoding="UTF-8"?>
<!DOCTYPE svg PUBLIC "-//W3C//DTD SVG 1.1//EN" "http://www.w3.org/Graphics/SVG/1.1/DTD/svg11.dtd">
<svg xmlns="http://www.w3.org/2000/svg" version="1.1" width="300px" height="72px" style="shape-rendering:geometricPrecision; text-rendering:geometricPrecision; image-rendering:optimizeQuality; fill-rule:evenodd; clip-rule:evenodd" xmlns:xlink="http://www.w3.org/1999/xlink">
<g><path style="opacity:0.945" fill="#fedc00" d="M 22.5,-0.5 C 23.5,-0.5 24.5,-0.5 25.5,-0.5C 26.4444,8.44652 26.7778,17.4465 26.5,26.5C 35.0041,26.0328 43.3374,26.5328 51.5,28C 43.6955,42.4432 36.0288,56.9432 28.5,71.5C 27.5,71.5 26.5,71.5 25.5,71.5C 24.5289,62.5839 24.1956,53.5839 24.5,44.5C 16.1667,44.5 7.83333,44.5 -0.5,44.5C -0.5,43.5 -0.5,42.5 -0.5,41.5C 7.65874,27.8555 15.3254,13.8555 22.5,-0.5 Z"/></g>
<g><path style="opacity:0.739" fill="#fefefe" d="M 58.5,-0.5 C 59.5,-0.5 60.5,-0.5 61.5,-0.5C 61.5,23.5 61.5,47.5 61.5,71.5C 60.5,71.5 59.5,71.5 58.5,71.5C 57.1667,47.5 57.1667,23.5 58.5,-0.5 Z"/></g>
<g><path style="opacity:0.842" fill="#fefefe" d="M 68.5,0.5 C 72.8333,0.5 77.1667,0.5 81.5,0.5C 81.9358,3.36412 81.1025,5.69745 79,7.5C 78.3333,14.1667 78.3333,20.8333 79,27.5C 81.1025,29.3025 81.9358,31.6359 81.5,34.5C 77.1667,34.5 72.8333,34.5 68.5,34.5C 68.0642,31.6359 68.8975,29.3025 71,27.5C 71.6667,20.8333 71.6667,14.1667 71,7.5C 68.8975,5.69745 68.0642,3.36412 68.5,0.5 Z"/></g>
<g><path style="opacity:0.805" fill="#fefefe" d="M 102.5,0.5 C 108.176,0.333909 113.843,0.500575 119.5,1C 128.048,2.3341 130.882,7.16743 128,15.5C 126.649,17.019 125.149,18.3523 123.5,19.5C 125.282,23.4086 127.782,26.742 131,29.5C 132,28.8333 133,28.1667 134,27.5C 134.667,20.8333 134.667,14.1667 134,7.5C 131.535,5.94478 131.035,3.94478 132.5,1.5C 139.803,0.502739 147.137,0.169406 154.5,0.5C 154.5,3.83333 154.5,7.16667 154.5,10.5C 150.795,8.56083 146.795,7.2275 142.5,6.5C 142.5,8.83333 142.5,11.1667 142.5,13.5C 145.645,13.2687 148.645,12.7687 151.5,12C 152.787,15.1247 152.787,18.2913 151.5,21.5C 150.833,21.8333 150.167,22.1667 149.5,22.5C 147.477,20.8267 145.144,20.1601 142.5,20.5C 142.5,22.8333 142.5,25.1667 142.5,27.5C 146.853,27.2638 150.853,26.4305 154.5,25C 155.451,28.0567 155.784,31.2234 155.5,34.5C 147.391,35.1136 139.558,34.4469 132,32.5C 128.77,34.6912 125.27,35.0245 121.5,33.5C 120.027,29.7492 118.36,26.0825 116.5,22.5C 115.311,21.5713 113.978,21.238 112.5,21.5C 112.5,23.5 112.5,25.5 112.5,27.5C 117.281,27.9358 118.614,30.2691 116.5,34.5C 111.833,34.5 107.167,34.5 102.5,34.5C 103.465,28.8967 104.131,23.2301 104.5,17.5C 104.131,11.7699 103.465,6.10327 102.5,0.5 Z M 112.5,6.5 C 114.801,7.06043 117.134,7.56043 119.5,8C 120.805,13.5244 118.472,15.6911 112.5,14.5C 112.5,11.8333 112.5,9.16667 112.5,6.5 Z"/></g>
<g><path style="opacity:0.804" fill="#fefefe" d="M 166.5,0.5 C 171.742,0.0227176 176.742,0.856051 181.5,3C 182.291,5.74986 182.291,8.5832 181.5,11.5C 177.221,12.5464 174.555,11.0464 173.5,7C 171.08,6.31307 168.913,6.81307 167,8.5C 163.917,14.8714 164.417,21.038 168.5,27C 172.045,27.7171 175.545,27.5504 179,26.5C 183.988,30.4105 183.155,32.9105 176.5,34C 163.328,36.8293 156.661,31.496 156.5,18C 156.043,9.7649 159.376,3.93157 166.5,0.5 Z"/></g>
<g><path style="opacity:0.65" fill="#fefefe" d="M 87.5,17.5 C 91.1817,17.3347 94.8484,17.5014 98.5,18C 99.4061,19.6995 99.7394,21.5328 99.5,23.5C 94.5374,24.4964 89.5374,24.6631 84.5,24C 82.7447,20.4949 83.7447,18.3282 87.5,17.5 Z"/></g>
<g><path style="opacity:0.831" fill="#fefefe" d="M 68.5,36.5 C 75.9059,36.152 83.2392,36.652 90.5,38C 96.3323,43.3314 96.999,49.3314 92.5,56C 88.0888,58.1253 83.4221,59.292 78.5,59.5C 78.2934,62.7454 79.7934,64.7454 83,65.5C 83.5946,66.8989 83.4279,68.2322 82.5,69.5C 77.8804,70.4933 73.2137,70.8266 68.5,70.5C 68.0642,67.6359 68.8975,65.3025 71,63.5C 71.6667,56.8333 71.6667,50.1667 71,43.5C 68.8975,41.6975 68.0642,39.3641 68.5,36.5 Z M 78.5,43.5 C 86.2721,42.2656 88.6055,45.099 85.5,52C 83.1902,52.4966 80.8568,52.6633 78.5,52.5C 78.5,49.5 78.5,46.5 78.5,43.5 Z"/></g>
<g><path style="opacity:0.806" fill="#fefefe" d="M 97.5,36.5 C 101.5,36.5 105.5,36.5 109.5,36.5C 107.729,45.6402 107.062,54.9735 107.5,64.5C 111.795,63.7725 115.795,62.4392 119.5,60.5C 119.042,65.029 120.042,65.529 122.5,62C 125.473,53.8864 128.306,45.7197 131,37.5C 133.401,36.3977 135.901,36.231 138.5,37C 142.725,48.2433 146.725,59.41 150.5,70.5C 146.445,70.8242 142.445,70.4909 138.5,69.5C 138.013,68.5539 137.68,67.5539 137.5,66.5C 138.547,64.9436 139.214,63.2769 139.5,61.5C 136.223,61.2161 133.057,61.5495 130,62.5C 130.958,64.9346 131.458,67.6013 131.5,70.5C 120.167,70.5 108.833,70.5 97.5,70.5C 95.7393,67.6631 96.2393,65.3298 99,63.5C 99.6667,56.8333 99.6667,50.1667 99,43.5C 96.2393,41.6702 95.7393,39.3369 97.5,36.5 Z M 134.5,48.5 C 135.269,50.6674 136.269,52.834 137.5,55C 135.866,55.4935 134.199,55.6602 132.5,55.5C 132.767,53.0347 133.434,50.7014 134.5,48.5 Z"/></g>
<g><path style="opacity:0.794" fill="#fefefe" d="M 146.5,36.5 C 155.833,36.5 165.167,36.5 174.5,36.5C 174.833,40.5 175.167,40.5 175.5,36.5C 182.833,36.5 190.167,36.5 197.5,36.5C 197.5,39.8333 197.5,43.1667 197.5,46.5C 193.848,44.5986 189.848,43.5986 185.5,43.5C 185.5,45.8333 185.5,48.1667 185.5,50.5C 188.983,50.3094 192.316,49.6427 195.5,48.5C 195.5,51.8333 195.5,55.1667 195.5,58.5C 192.316,57.3573 188.983,56.6906 185.5,56.5C 186.223,61.4459 187.556,66.1125 189.5,70.5C 184.833,70.5 180.167,70.5 175.5,70.5C 173.739,67.6631 174.239,65.3298 177,63.5C 177.667,56.8333 177.667,50.1667 177,43.5C 175.092,40.6677 174.259,41.001 174.5,44.5C 173.178,44.33 172.011,44.6634 171,45.5C 169.211,43.771 167.044,43.1043 164.5,43.5C 164.17,50.5316 164.503,57.5316 165.5,64.5C 166.308,64.8076 166.975,65.3076 167.5,66C 166.62,67.3561 166.286,68.8561 166.5,70.5C 162.5,70.5 158.5,70.5 154.5,70.5C 152.739,67.6631 153.239,65.3298 156,63.5C 156.5,56.8417 156.666,50.175 156.5,43.5C 153.956,43.1043 151.789,43.771 150,45.5C 148.989,44.6634 147.822,44.33 146.5,44.5C 146.5,41.8333 146.5,39.1667 146.5,36.5 Z"/></g>
<g><path style="opacity:0.828" fill="#fefefe" d="M 208.5,36.5 C 214.061,35.8024 219.227,36.8024 224,39.5C 228.628,48.4362 228.628,57.4362 224,66.5C 216.667,71.8333 209.333,71.8333 202,66.5C 199.098,58.9668 198.765,51.3001 201,43.5C 202.767,40.228 205.267,37.8947 208.5,36.5 Z M 212.5,42.5 C 214.679,42.84 216.512,43.84 218,45.5C 220,50.8333 220,56.1667 218,61.5C 215,65.5 212,65.5 209,61.5C 207.524,56.9241 207.19,52.2574 208,47.5C 208.74,45.0297 210.24,43.363 212.5,42.5 Z"/></g>
<g><path style="opacity:0.815" fill="#fefefe" d="M 299.5,37.5 C 299.5,38.8333 299.5,40.1667 299.5,41.5C 298.542,41.9528 297.708,42.6195 297,43.5C 296.333,50.1667 296.333,56.8333 297,63.5C 297.708,64.3805 298.542,65.0472 299.5,65.5C 299.5,66.5 299.5,67.5 299.5,68.5C 295.567,70.7228 291.401,71.0561 287,69.5C 286.148,66.967 286.814,64.967 289,63.5C 289.667,58.8333 289.667,54.1667 289,49.5C 286.524,56.4274 284.357,63.4274 282.5,70.5C 279.753,70.8134 277.086,70.48 274.5,69.5C 272.428,63.4508 270.262,57.4508 268,51.5C 267.833,53.6667 267.667,55.8333 267.5,58C 268.12,62.2009 268.787,66.3676 269.5,70.5C 265.566,70.9789 261.899,70.3122 258.5,68.5C 255.386,70.6323 252.053,70.9656 248.5,69.5C 246.64,65.9175 244.973,62.2508 243.5,58.5C 242.672,57.5853 241.672,56.9186 240.5,56.5C 238.696,61.0316 240.029,64.1983 244.5,66C 243.62,67.3561 243.286,68.8561 243.5,70.5C 238.833,70.5 234.167,70.5 229.5,70.5C 230.465,64.8967 231.131,59.2301 231.5,53.5C 231.131,47.7699 230.465,42.1033 229.5,36.5C 235.509,36.3338 241.509,36.5005 247.5,37C 255.412,39.605 257.579,44.7716 254,52.5C 252.926,53.6184 251.76,54.6184 250.5,55.5C 257.409,69.4973 261.076,68.8306 261.5,53.5C 261.333,50.1667 261.167,46.8333 261,43.5C 258.517,41.7397 258.017,39.573 259.5,37C 263.423,36.2073 267.256,36.374 271,37.5C 273.667,44.8333 276.333,52.1667 279,59.5C 282.057,52.3308 284.724,44.9974 287,37.5C 291.166,36.1968 295.333,36.1968 299.5,37.5 Z M 239.5,43.5 C 241.857,43.3367 244.19,43.5034 246.5,44C 247.805,49.5244 245.472,51.6911 239.5,50.5C 239.5,48.1667 239.5,45.8333 239.5,43.5 Z"/></g>
</svg>
