<?xml version="1.0" encoding="UTF-8"?>
<!DOCTYPE svg PUBLIC "-//W3C//DTD SVG 1.1//EN" "http://www.w3.org/Graphics/SVG/1.1/DTD/svg11.dtd">
<svg xmlns="http://www.w3.org/2000/svg" version="1.1" width="100px" height="126px" style="shape-rendering:geometricPrecision; text-rendering:geometricPrecision; image-rendering:optimizeQuality; fill-rule:evenodd; clip-rule:evenodd" xmlns:xlink="http://www.w3.org/1999/xlink">
<g><path style="opacity:1" fill="#f8d600" d="M 40.5,-0.5 C 42.1667,-0.5 43.8333,-0.5 45.5,-0.5C 45.1705,15.0091 45.5038,30.3424 46.5,45.5C 60.1267,47.4824 74.1267,48.1491 88.5,47.5C 89.6129,48.9464 89.7796,50.6131 89,52.5C 82.0731,65.3594 74.9065,78.0261 67.5,90.5C 65.461,91.911 64.461,93.911 64.5,96.5C 62.5133,100.473 60.5133,104.473 58.5,108.5C 56.9519,108.821 56.2852,109.821 56.5,111.5C 54.7237,115.393 52.7237,119.06 50.5,122.5C 48.9891,123.502 47.3224,124.169 45.5,124.5C 45.6666,109.496 45.4999,94.4963 45,79.5C 44.3292,78.7476 43.4959,78.4142 42.5,78.5C 28.1181,78.7996 13.7848,78.4663 -0.5,77.5C -0.5,76.1667 -0.5,74.8333 -0.5,73.5C 10.1528,54.8654 20.8195,36.1987 31.5,17.5C 35.3893,13.2448 38.056,8.24478 39.5,2.5C 39.5569,1.39105 39.8902,0.391047 40.5,-0.5 Z"/></g>
<g><path style="opacity:0.949" fill="#b69d06" d="M 39.5,2.5 C 38.056,8.24478 35.3893,13.2448 31.5,17.5C 33.291,12.0399 35.9576,7.03989 39.5,2.5 Z"/></g>
<g><path style="opacity:0.443" fill="#8d7900" d="M 46.5,45.5 C 60.5982,46.1505 74.5982,46.8172 88.5,47.5C 74.1267,48.1491 60.1267,47.4824 46.5,45.5 Z"/></g>
<g><path style="opacity:0.706" fill="#cdad00" d="M 42.5,78.5 C 43.4959,78.4142 44.3292,78.7476 45,79.5C 45.4999,94.4963 45.6666,109.496 45.5,124.5C 47.3224,124.169 48.9891,123.502 50.5,122.5C 49.8902,123.391 49.5569,124.391 49.5,125.5C 47.8333,125.5 46.1667,125.5 44.5,125.5C 43.8484,109.803 43.1817,94.1366 42.5,78.5 Z"/></g>
<g><path style="opacity:0.133" fill="#9b8700" d="M 67.5,90.5 C 67.0075,92.8185 66.0075,94.8185 64.5,96.5C 64.461,93.911 65.461,91.911 67.5,90.5 Z"/></g>
<g><path style="opacity:0.063" fill="#936209" d="M 58.5,108.5 C 58.0679,109.71 57.4013,110.71 56.5,111.5C 56.2852,109.821 56.9519,108.821 58.5,108.5 Z"/></g>
</svg>
